<svg width="59px" height="65px" viewBox="0 0 59 65" version="1.1" xmlns="http://www.w3.org/2000/svg" xmlns:xlink="http://www.w3.org/1999/xlink" role="img">
    <title id="catTitle">Pixels, My Super-friendly Cat</title>
    <defs></defs>
    <g id="STEP-Benefits-Screen" stroke="none" stroke-width="1" fill="none" fill-rule="evenodd" stroke-linecap="round" stroke-linejoin="round">
        <g id="SC_EHOME_UI_D_ST3-05-1-Copy" transform="translate(-465.000000, -780.000000)" stroke-width="1.5">
            <g id="Image-Card---Active" transform="translate(430.000000, 745.000000)">
                <g id="Module">
                    <g id="Illustration" transform="translate(36.000000, 36.000000)">
                        <path d="M17.4048171,57.6331979 L3.80318931,38.4606722" id="Stroke-322" stroke="#7462E0"></path>
                        <path d="M3.80318931,32.9828077 L31.0064448,20.6576126" id="Stroke-323" stroke="#7462E0"></path>
                        <path d="M5.03970093,35.72174 C5.03970093,37.2336306 3.93178652,38.4606722 2.5666777,38.4606722 C1.20156888,38.4606722 0.0936544712,37.2336306 0.0936544712,35.72174 C0.0936544712,34.2098494 1.20156888,32.9828077 2.5666777,32.9828077 C3.93178652,32.9828077 5.03970093,34.2098494 5.03970093,35.72174 L5.03970093,35.72174 Z" id="Stroke-321" stroke="#FE5E48"></path>
                        <path d="M34.5401477,32.9828077 L54.4999182,10.8768856 L54.0745582,10.416745 C50.1993308,6.22617864 43.9994616,6.26726262 40.1687486,10.5098687 L34.2087626,17.1106954 C30.3780496,21.3533014 30.3409543,28.2198046 34.1246798,32.5117114 L34.5401477,32.9828077 L34.5401477,32.9828077 Z" id="Stroke-324" stroke="#FE5E48"></path>
                        <path d="M9.98574738,57.6331979 L29.7699332,57.6331979 C32.5026239,57.6331979 34.7159797,60.0845423 34.7159797,63.1110624 L5.03970093,63.1110624 C5.03970093,60.0845423 7.25305672,57.6331979 9.98574738,57.6331979 L9.98574738,57.6331979 Z" id="Stroke-320" stroke="#FE5E48"></path>
                        <path d="M43.371561,6.96295141 L39.6595531,2.85181411 C38.0768182,1.09889748 35.9327071,0.115620801 33.6946211,0.115620801 L33.261842,0.115620801 C31.026229,0.115620801 28.8821179,1.09889748 27.299383,2.85181411 L27.294437,2.85729198 C25.7117021,4.61020861 24.8238868,6.98486287 24.8238868,9.46359655 L24.8238868,9.94017076 C24.8238868,12.4189044 25.7117021,14.7935587 27.294437,16.5464753 L31.0064448,20.6576126" id="Stroke-325" stroke="#FE5E48"></path>
                        <path d="M48.105422,18.1536808 C50.0368532,20.2927869 50.0368532,23.7602751 48.105422,25.8993812 C46.1739909,28.0412262 43.0431435,28.0412262 41.1117123,25.8993812" id="Stroke-326" stroke="#FE5E48"></path>
                        <path d="M54.5001655,21.3107143 L56.9731887,21.3107143" id="Stroke-327" stroke="#F5C400"></path>
                        <path d="M44.5714286,32.9828077 L44.5714286,35.72174" id="Stroke-328" stroke="#F5C400"></path>
                        <path d="M52.0271423,30.2438755 L54.5001655,32.9828077" id="Stroke-329" stroke="#F5C400"></path>
                    </g>
                </g>
            </g>
        </g>
    </g>
</svg>
